<?xml version="1.0" encoding="utf-8"?>
<!-- Generator: Adobe Illustrator 23.0.6, SVG Export Plug-In . SVG Version: 6.00 Build 0)  -->
<svg version="1.1" id="Layer_1" xmlns="http://www.w3.org/2000/svg" xmlns:xlink="http://www.w3.org/1999/xlink" x="0px" y="0px"
	 viewBox="0 0 595.3 841.9" style="enable-background:new 0 0 595.3 841.9;" xml:space="preserve">
<style type="text/css">
	.st0{fill:#009688;stroke:#009688;stroke-width:3;stroke-miterlimit:10;}
</style>
<g>
	<g>
		<g id="logo_1_">
			<g>
				<path class="st0" d="M291.1,418.1c-0.3-0.9-0.6-1.8-1.1-2.7c-3.1-6.1-10.1-10.3-18.2-10.3h0c-3.3,0-6.6,0.7-9.5,2.1l-10.5-2.4
					l2.8,8.9c-1.7,2.6-2.7,5.6-2.7,8.6c0,9.5,8.9,17.2,19.9,17.2c5.3,0,10.3-1.8,14-5.1c3.8-3.3,5.8-7.6,5.8-12.2
					C291.7,420.8,291.5,419.4,291.1,418.1z M283.5,432.4c-3.1,2.7-7.3,4.2-11.7,4.2c-9.1,0-16.5-6.4-16.5-14.3
					c0-2.7,0.9-5.3,2.5-7.6l0.4-0.5l-1.7-5.3l6.2,1.4l0.6-0.3c2.5-1.3,5.4-2,8.4-2h0c6.8,0,12.7,3.6,15.2,8.7c0.4,0.9,0.8,1.8,1,2.7
					c0.2,0.9,0.3,1.9,0.3,2.9C288.3,426.1,286.6,429.7,283.5,432.4z"/>
			</g>
		</g>
		<g id="logo_2_">
			<g>
				<path class="st0" d="M338.3,404.8l-10.5,2.4c-2.9-1.4-6.2-2.1-9.5-2.1h0c-5.5,0-10.4,1.9-14,5c-1.7,1.5-3.1,3.3-4.1,5.2
					c-0.4,0.9-0.8,1.8-1.1,2.7c-0.4,1.4-0.6,2.8-0.6,4.3c0,4.6,2.1,8.9,5.8,12.2c3.8,3.3,8.7,5.1,14,5.1c10.9,0,19.9-7.7,19.9-17.2
					c0-3-0.9-6-2.7-8.6L338.3,404.8z M318.2,436.6c-4.4,0-8.6-1.5-11.7-4.2c-3.1-2.7-4.8-6.3-4.8-10.1c0-1.1,0.1-2.1,0.4-3.1
					c0.2-0.9,0.6-1.8,1-2.7c2.6-5,8.4-8.6,15.1-8.6h0c3,0,5.9,0.7,8.4,2l0.6,0.3l6.2-1.4l-1.7,5.3l0.4,0.5c1.7,2.3,2.5,4.9,2.5,7.6
					C334.8,430.2,327.3,436.6,318.2,436.6z"/>
			</g>
		</g>
		<path class="st0" d="M302.3,416.5c-0.4,0.9-0.8,1.8-1,2.7c-1-0.5-2-0.9-3.1-1.2c-0.9-0.2-1.9-0.4-3-0.4c-1.1,0-2.2,0.2-3.3,0.4
			c-1.1,0.3-2.1,0.7-3.1,1.3c-0.2-0.9-0.6-1.9-1-2.7c1-0.5,2-1,3-1.3c1.4-0.4,2.9-0.6,4.4-0.6c1.4,0,2.7,0.2,4,0.6
			C300.3,415.6,301.3,416,302.3,416.5z"/>
	</g>
</g>
</svg>
