<?xml version="1.0" encoding="utf-8"?>
<!-- Generator: Adobe Illustrator 23.0.6, SVG Export Plug-In . SVG Version: 6.00 Build 0)  -->
<svg version="1.1" id="Layer_1" xmlns="http://www.w3.org/2000/svg" xmlns:xlink="http://www.w3.org/1999/xlink" x="0px" y="0px"
	 viewBox="0 0 595.3 841.9" style="enable-background:new 0 0 595.3 841.9;" xml:space="preserve">
<style type="text/css">
	.st0{fill:#69B75B;}
	.st1{font-family:'Gobold';}
	.st2{font-size:29.2498px;}
	.st3{fill:#69B75B;stroke:#69B75B;stroke-width:3;stroke-miterlimit:10;}
</style>
<g>
	<polygon class="st0" points="286.6,457.1 279.9,414.2 275.5,414.2 275.3,414.2 265.8,414.2 259.1,465.4 252.3,414.2 242.8,414.2 
		236,465.4 229.2,414.2 219.6,414.2 222.7,437.7 229.5,480.6 242.6,480.6 247.6,446.4 252.5,480.6 265.7,480.6 272.4,437.8 
		273.4,430.3 276.9,457.1 270.4,457.1 270.4,466.6 278.2,466.6 280.1,480.6 289.7,480.6 	"/>
	<text transform="matrix(1 0 0 1 293.3911 479.8672)" class="st1 st2">reader</text>
	<g>
		<g id="logo_1_">
			<g>
				<path class="st3" d="M330.8,429c-0.3-0.9-0.6-1.8-1.1-2.7c-3.1-6.1-10.1-10.3-18.2-10.3h0c-3.3,0-6.6,0.7-9.5,2.1l-10.5-2.4
					l2.8,8.9c-1.7,2.6-2.7,5.6-2.7,8.6c0,9.5,8.9,17.2,19.9,17.2c5.3,0,10.3-1.8,14-5.1c3.8-3.3,5.8-7.6,5.8-12.2
					C331.4,431.7,331.2,430.3,330.8,429z M323.2,443.3c-3.1,2.7-7.3,4.2-11.7,4.2c-9.1,0-16.5-6.4-16.5-14.3c0-2.7,0.9-5.3,2.5-7.6
					l0.4-0.5l-1.7-5.3l6.2,1.4l0.6-0.3c2.5-1.3,5.4-2,8.4-2h0c6.8,0,12.7,3.6,15.2,8.7c0.4,0.9,0.8,1.8,1,2.7
					c0.2,0.9,0.3,1.9,0.3,2.9C328.1,437,326.3,440.6,323.2,443.3z"/>
			</g>
		</g>
		<g id="logo_2_">
			<g>
				<path class="st3" d="M378,415.6l-10.5,2.4c-2.9-1.4-6.2-2.1-9.5-2.1h0c-5.5,0-10.4,1.9-14,5c-1.7,1.5-3.1,3.3-4.1,5.2
					c-0.4,0.9-0.8,1.8-1.1,2.7c-0.4,1.4-0.6,2.8-0.6,4.3c0,4.6,2.1,8.9,5.8,12.2c3.8,3.3,8.7,5.1,14,5.1c10.9,0,19.9-7.7,19.9-17.2
					c0-3-0.9-6-2.7-8.6L378,415.6z M358,447.5c-4.4,0-8.6-1.5-11.7-4.2c-3.1-2.7-4.8-6.3-4.8-10.1c0-1.1,0.1-2.1,0.4-3.1
					c0.2-0.9,0.6-1.8,1-2.7c2.6-5,8.4-8.6,15.1-8.6h0c3,0,5.9,0.7,8.4,2l0.6,0.3l6.2-1.4l-1.7,5.3l0.4,0.5c1.7,2.3,2.5,4.9,2.5,7.6
					C374.5,441.1,367.1,447.5,358,447.5z"/>
			</g>
		</g>
		<path class="st3" d="M342,427.4c-0.4,0.9-0.8,1.8-1,2.7c-1-0.5-2-0.9-3.1-1.2c-0.9-0.2-1.9-0.4-3-0.4c-1.1,0-2.2,0.2-3.3,0.4
			c-1.1,0.3-2.1,0.7-3.1,1.3c-0.2-0.9-0.6-1.9-1-2.7c1-0.5,2-1,3-1.3c1.4-0.4,2.9-0.6,4.4-0.6c1.4,0,2.7,0.2,4,0.6
			C340,426.5,341.1,426.9,342,427.4z"/>
	</g>
</g>
</svg>
